<svg xmlns="http://www.w3.org/2000/svg"><style>:root svg:not(:target){display:none}</style><svg viewBox="0 0 8 8" fill="none" id="arrow-45deg-icon"><path d="M0.799805 7.20005L7.1998 0.800049M7.1998 0.800049H0.842189M7.1998 0.800049V7.15766" stroke="white" stroke-width="1.6"></path></svg><svg viewBox="0 0 10 10" fill="none" id="arrow-left-icon"><path d="M10.0003 4.7395H1.66699M1.66699 4.7395L5.80607 9.16659M1.66699 4.7395L5.80607 0.833252" stroke="#A9AFB7" stroke-width="1.66667"></path></svg><svg viewBox="0 0 10 10" fill="none" id="arrow-right-icon"><path d="M0 4.7395H8.33333M8.33333 4.7395L4.19426 9.16659M8.33333 4.7395L4.19426 0.833252" stroke="#316DC2" stroke-width="1.66667"></path></svg><svg viewBox="0 0 16 8" fill="none" id="burger-icon"><path d="M0.799805 0.799805H15.1998M0.799805 3.9998H15.1998M0.799805 7.1998H15.1998" stroke="white" stroke-width="0.8" stroke-linecap="round"></path></svg><svg viewBox="0 0 22 20" fill="none" id="check-icon"><path d="M1 8.5L8.36842 19L21 1" stroke="#316DC2" stroke-linecap="round" stroke-linejoin="round"></path></svg><svg viewBox="0 0 22 20" fill="none" id="check-modal-icon"><path d="M1 8.5L8.36842 19L21 1" stroke="#ffffff" stroke-linecap="round" stroke-linejoin="round"></path></svg><svg viewBox="0 0 10 10" fill="none" id="corner-icon"><path d="M10 0C4.47715 0 0 4.47715 0 10V0H10Z" fill="red"></path></svg><svg viewBox="0 0 18 18" fill="none" id="cross-icon"><path d="M1 17L9 9M9 9L17 1M9 9L17 17M9 9L1 1" stroke="#316DC2" stroke-linecap="round" stroke-linejoin="round"></path></svg><svg viewBox="0 0 30 30" fill="none" id="logo"><g clip-path="url(#logo_0)"><path d="M0.918425 8.80064C0.0667326 9.40733 -0.432452 10.6921 0.508531 12.2283C1.44951 13.7645 14.8931 24.1336 15.3859 24.4215C15.8789 24.7097 16.3721 24.7576 17.6264 23.7496C18.8813 22.7413 29.3653 14.8656 29.6358 14.6287C30.0663 14.2518 30.1735 13.3325 29.6358 12.9003C29.6358 12.9003 16.9346 22.4052 16.5188 22.7895C16.1031 23.1735 15.4561 22.5495 15.5776 21.7335C15.6996 20.9172 15.7894 20.8211 17.4026 19.5731C19.0158 18.3248 28.1622 11.3928 28.5772 11.0864C29.0471 10.7391 29.0584 10.1258 28.2887 9.58345C27.2185 8.82937 15.6538 0.604729 15.2669 0.316815C14.879 0.0286649 14.3421 -0.233137 13.5356 0.342927C12.7291 0.918991 2.48311 7.68578 0.918425 8.80064Z" fill="#316DC2"></path><path d="M15.3862 25.4331C15.0627 25.244 9.16427 20.7152 4.87988 17.189V24.5411C4.87656 29.908 19.9972 32.7755 25.0065 26.1779V19.151C21.9292 21.4762 18.3297 24.1963 17.6267 24.7609C16.3724 25.769 15.8792 25.721 15.3862 25.4331Z" fill="#316DC2"></path><path d="M21.7843 17.3716C21.7843 17.3716 24.0325 18.5019 24.1924 23.0503L23.1032 22.7501L22.2318 24.6012C21.8631 19.6205 19.8555 18.8983 19.8555 18.8983L21.7843 17.3716Z" fill="#98B8E6"></path></g><defs><clipPath id="logo_0"><rect width="30" height="30" fill="white"></rect></clipPath></defs></svg><svg viewBox="0 0 8 12" fill="none" id="ok-icon"><path d="M4.0001 1.9702C4.6949 1.9702 5.26 2.52415 5.26 3.2053C5.26 3.8844 4.6949 4.4384 4.0001 4.4384C3.3052 4.4384 2.7401 3.8844 2.7401 3.2053C2.7401 2.52415 3.3052 1.9702 4.0001 1.9702ZM4.0001 6.1864C5.6786 6.1864 7.0433 4.8487 7.0433 3.2053C7.0433 1.55986 5.6786 0.222168 4.0001 0.222168C2.3215 0.222168 0.958994 1.55986 0.958994 3.2053C0.958994 4.8487 2.3215 6.1864 4.0001 6.1864ZM5.2307 8.6197C5.8503 8.4802 6.4468 8.2401 6.9972 7.9016C7.4137 7.6451 7.5393 7.1055 7.2777 6.6973C7.014 6.2869 6.4656 6.1638 6.047 6.4223C4.8017 7.1897 3.1985 7.1897 1.9511 6.4223C1.5346 6.1638 0.984114 6.2869 0.722484 6.6973C0.460864 7.1055 0.586444 7.6451 1.0029 7.9016C1.5534 8.2401 2.1499 8.4802 2.7694 8.6197L1.0678 10.2856C0.720394 10.6262 0.720394 11.1802 1.0678 11.5208C1.2436 11.691 1.4697 11.7772 1.6978 11.7772C1.9259 11.7772 2.1541 11.691 2.3299 11.5208L4.0001 9.8835L5.6724 11.5208C6.0198 11.8634 6.5828 11.8634 6.9323 11.5208C7.2798 11.1802 7.2798 10.6262 6.9323 10.2856L5.2307 8.6197Z" fill="white"></path></svg><svg viewBox="0 0 16 9" fill="none" id="popup-icon-form"><path d="M15.272 1.09082L7.99929 7.63628L0.726562 1.09082" stroke="#ffffff"></path></svg><svg viewBox="0 0 22 22" fill="none" id="popup-icon-open-form"><path d="M1 15L11 6L21 15" stroke="#ffffff"></path></svg><svg viewBox="0 0 22 22" fill="none" id="popup-icon-open"><path d="M1 15L11 6L21 15" stroke="#484848"></path></svg><svg viewBox="0 0 16 9" fill="none" id="popup-icon"><path d="M15.272 1.09082L7.99929 7.63628L0.726562 1.09082" stroke="#484848"></path></svg><svg viewBox="0 0 12 12" fill="none" id="rd-icon"><path d="M7.0223 0.484863C6.6855 0.484863 6.3694 0.664293 6.1666 0.923053C5.9639 1.18181 5.8521 1.49723 5.7707 1.82965C5.6414 2.36417 5.6014 2.95724 5.5919 3.4918C4.6451 3.5579 3.7878 3.8525 3.0758 4.3077C2.78678 4.0527 2.43874 3.9111 2.10507 3.9148C1.7251 3.9186 1.36428 4.0905 1.09607 4.4437C0.58358 5.118 0.642659 6.221 1.23656 6.8764C1.19984 7.0785 1.1727 7.2863 1.1727 7.4959C1.1727 9.7171 3.3344 11.5152 6.0006 11.5152C8.6668 11.5152 10.8284 9.7152 10.8284 7.4959C10.8284 7.2863 10.8013 7.0785 10.7646 6.8764C11.3585 6.221 11.4176 5.118 10.9051 4.4437C10.6369 4.0905 10.2761 3.9186 9.8961 3.9148C9.5624 3.9111 9.2144 4.0527 8.9254 4.3077C8.2165 3.8544 7.364 3.5597 6.4221 3.4918C6.4348 2.99879 6.4684 2.48694 6.5625 2.10163C6.6216 1.85987 6.6919 1.68422 6.7669 1.58789C6.8419 1.49157 6.8962 1.4519 7.0223 1.4519C7.2953 1.4519 7.3305 1.54445 7.4949 1.76921C7.5779 1.88254 7.6737 2.0242 7.827 2.16207C7.9803 2.29995 8.207 2.41894 8.4528 2.41894V1.4519C8.3842 1.4519 8.3714 1.45002 8.3251 1.40657C8.2788 1.36313 8.2149 1.26303 8.1207 1.13459C7.9324 0.875833 7.5668 0.484863 7.0223 0.484863ZM9.679 0.575523C9.0435 0.575523 8.5295 1.1837 8.5295 1.93542C8.5295 2.68715 9.0435 3.2953 9.679 3.2953C10.3144 3.2953 10.8284 2.68715 10.8284 1.93542C10.8284 1.1837 10.3144 0.575523 9.679 0.575523ZM9.679 1.05904C10.0877 1.05904 10.4197 1.4519 10.4197 1.93542C10.4197 2.41894 10.0877 2.8118 9.679 2.8118C9.2702 2.8118 8.9382 2.41894 8.9382 1.93542C8.9382 1.4519 9.2702 1.05904 9.679 1.05904ZM6.0006 4.2473C8.2628 4.2473 10.1771 5.7375 10.1771 7.4959C10.1771 9.2562 8.2628 10.7446 6.0006 10.7446C3.7383 10.7446 1.82408 9.2562 1.82408 7.4959C1.82408 5.7375 3.7383 4.2473 6.0006 4.2473ZM2.11784 4.6854C2.23119 4.6873 2.34933 4.7176 2.46269 4.7761C2.05238 5.1444 1.72669 5.5675 1.50478 6.0453C1.35151 5.6714 1.39302 5.2049 1.58141 4.9574C1.71871 4.7761 1.90869 4.6836 2.11784 4.6854ZM9.8833 4.6854C10.0925 4.6836 10.2824 4.7761 10.4197 4.9574C10.6081 5.2049 10.6496 5.6714 10.4964 6.0453C10.2745 5.5675 9.9488 5.1444 9.5385 4.7761C9.6518 4.7176 9.77 4.6873 9.8833 4.6854ZM4.3657 5.8942C3.957 5.8942 3.625 6.2871 3.625 6.7706C3.625 7.2541 3.957 7.647 4.3657 7.647C4.7744 7.647 5.1065 7.2541 5.1065 6.7706C5.1065 6.2871 4.7744 5.8942 4.3657 5.8942ZM7.6354 5.8942C7.2267 5.8942 6.8946 6.2871 6.8946 6.7706C6.8946 7.2541 7.2267 7.647 7.6354 7.647C8.0441 7.647 8.3762 7.2541 8.3762 6.7706C8.3762 6.2871 8.0441 5.8942 7.6354 5.8942ZM3.9698 8.8709C4.23 9.5074 5.0347 10.125 6.0006 10.125C6.9665 10.125 7.7839 9.5074 8.0441 8.8709C7.5715 9.2317 6.826 9.4753 6.0006 9.4753C5.1752 9.4753 4.4424 9.2317 3.9698 8.8709Z" fill="white"></path></svg><svg viewBox="0 0 18 22" fill="none" id="star-icon"><path d="M9 0L12.0138 5.47476L18 5.5L15.0275 11L18 16.5L12.0138 16.5252L9 22L5.98623 16.5252L0 16.5L2.97246 11L0 5.5L5.98623 5.47476L9 0Z" fill="white"></path></svg><svg viewBox="0 0 12 8" fill="none" id="vk-icon"><path d="M11.6752 6.4703C11.6442 6.4206 11.452 6.0215 10.5275 5.2012C9.5597 4.3423 9.6897 4.4817 10.8554 2.9965C11.5654 2.092 11.8493 1.5396 11.7604 1.3035C11.6759 1.0784 11.1537 1.1378 11.1537 1.1378L9.4174 1.1474C9.4174 1.1474 9.2888 1.1309 9.1928 1.1854C9.0996 1.2393 9.0396 1.3635 9.0396 1.3635C9.0396 1.3635 8.7644 2.0637 8.3975 2.6589C7.624 3.9148 7.3141 3.9811 7.1877 3.9031C6.8938 3.7215 6.9674 3.1726 6.9674 2.7832C6.9674 1.5659 7.1603 1.0584 6.5911 0.92716C6.4019 0.88366 6.2632 0.85466 5.78 0.84983C5.1603 0.84361 4.6352 0.8519 4.3383 0.99069C4.1404 1.0832 3.988 1.2897 4.0812 1.3014C4.1961 1.3159 4.4561 1.3684 4.594 1.5479C4.7724 1.7792 4.7659 2.2998 4.7659 2.2998C4.7659 2.2998 4.8685 3.7326 4.5269 3.9107C4.2921 4.0329 3.9707 3.7837 3.2809 2.6437C2.92774 2.0602 2.6605 1.4146 2.6605 1.4146C2.6605 1.4146 2.60922 1.2945 2.51749 1.2303C2.40626 1.1523 2.25024 1.1274 2.25024 1.1274L0.599118 1.1371C0.599118 1.1371 0.351378 1.144 0.260378 1.2469C0.179478 1.3387 0.253878 1.5279 0.253878 1.5279C0.253878 1.5279 1.54675 4.4189 3.0101 5.8765C4.3528 7.2126 5.8768 7.1249 5.8768 7.1249H6.5673C6.5673 7.1249 6.776 7.1028 6.8822 6.993C6.9804 6.8922 6.9768 6.703 6.9768 6.703C6.9768 6.703 6.9631 5.8171 7.3936 5.6866C7.8175 5.5582 8.3621 6.5428 8.9392 6.9219C9.3755 7.2084 9.707 7.1456 9.707 7.1456L11.2505 7.1249C11.2505 7.1249 12.058 7.0772 11.6752 6.4703Z" fill="white"></path></svg></svg>